<svg width="375" height="260" viewBox="0 0 375 260" fill="none" xmlns="http://www.w3.org/2000/svg">
<mask id="mask0_14375_90703" style="mask-type:alpha" maskUnits="userSpaceOnUse" x="0" y="0" width="375" height="260">
<rect width="375" height="260" fill="url(#paint0_linear_14375_90703)"/>
</mask>
<g mask="url(#mask0_14375_90703)">
<rect width="375" height="260" fill="url(#paint1_linear_14375_90703)"/>
</g>
<path opacity="0.6" fill-rule="evenodd" clip-rule="evenodd" d="M67.2902 52.2957C67.3771 52.3023 67.4612 52.3258 67.5372 52.3648C67.6132 52.4038 67.6796 52.4575 67.7324 52.5227C67.7852 52.5879 67.8232 52.6632 67.8443 52.744C67.8653 52.8247 67.8688 52.9094 67.8547 52.9927C67.6941 53.7641 67.4714 54.5244 67.1885 55.2666C66.8442 56.1787 66.4138 57.0612 65.9026 57.9026L65.6508 58.3115C65.2251 57.6293 64.7281 56.992 64.1672 56.409C64.1337 56.3606 64.0939 56.3168 64.0487 56.2783C63.972 56.182 63.8839 56.0947 63.786 56.0182C63.3093 55.5553 62.7924 55.1324 62.2404 54.7535C61.1848 54.0312 60.0168 53.4689 58.7754 53.0853C55.9457 52.1764 52.8417 52.2471 49.9899 53.2852L49.5197 53.4591C47.8696 54.1342 46.3682 55.12 45.1067 56.3565C43.8452 57.5931 42.85 59.0545 42.1815 60.652C41.9657 61.1564 41.785 61.673 41.6405 62.1982C41.5693 62.4323 41.3956 63.1945 41.3822 63.3241C41.3758 63.528 41.4089 63.7299 41.4797 63.9196C41.55 64.1158 41.661 64.2951 41.8062 64.4469L42.0342 64.6368C42.9252 65.3875 43.7831 66.167 44.6033 67.0103C45.0659 67.479 45.5234 67.9579 45.9578 68.4454C47.3966 70.0422 48.6878 71.7578 49.8176 73.5738C50.1649 74.1101 50.4972 74.6769 50.8114 75.242C50.8428 75.3022 50.8664 75.366 50.8817 75.4321C51.0119 75.69 51.0637 75.98 51.0313 76.2699C50.9989 76.5598 50.8836 76.8381 50.6982 77.0739C50.5128 77.3096 50.2646 77.4935 49.9813 77.605C49.6979 77.7165 49.3907 77.7513 49.0936 77.7054C47.6325 77.5987 46.1537 77.8132 44.7689 78.3328C43.1907 78.9164 41.7792 79.8711 40.6671 81.107C39.555 82.3429 38.779 83.8195 38.4119 85.3979C38.0448 86.9762 38.0988 88.6045 38.5688 90.1295C39.0388 91.6545 39.9093 93.0262 41.0985 94.1154C41.6024 94.5872 42.1614 95.002 42.7651 95.3519L42.7544 95.4888L28.2933 100.838C26.3678 99.7605 24.9094 98.0675 24.1623 96.0421C23.7765 95.0051 23.5889 93.904 23.6081 92.7904C21.8175 91.3909 20.3855 89.6171 19.415 87.5963C18.4445 85.5755 17.9595 83.3578 17.9948 81.1024C18.0301 78.8469 18.5849 76.6097 19.6193 74.5512C20.6537 72.4928 22.142 70.6641 23.9775 69.1965L24.4704 68.8231C27.4723 66.5323 30.1455 63.866 32.4145 60.8992C32.8247 60.3736 33.2114 59.8317 33.5723 59.2911C34.1458 58.4724 34.7058 57.6171 35.1806 56.7685L35.3912 56.393C35.81 55.6472 36.2595 54.8469 36.6487 54.0567C38.6744 49.9549 39.9797 45.579 40.51 41.1118C40.5145 41.0106 40.5274 40.9169 40.5407 40.821L40.5506 40.7478C40.5602 40.6695 40.5754 40.5917 40.5959 40.515C40.7328 39.9385 41.0103 39.3971 41.4052 38.936C41.8056 38.4692 42.3164 38.1005 42.8923 37.8626L43.216 37.7428C43.3477 37.7127 43.4814 37.6938 43.6158 37.6864C43.7537 37.6856 43.8908 37.6989 44.0248 37.7262C44.3065 37.7973 44.564 37.9328 44.7757 38.1215C45.276 38.0528 45.7614 38.0145 46.2521 37.9909L46.5802 37.9776C48.9001 37.9254 51.1866 38.3585 53.281 39.2468C55.3755 40.1351 57.2278 41.4574 58.7094 43.1219C58.7175 43.1575 58.7302 43.1919 58.7472 43.2242C59.2432 43.8064 59.9198 44.2207 60.6845 44.4105L60.848 44.4498C61.252 44.5537 61.593 44.8052 61.7996 45.1517C62.0061 45.4982 62.0622 45.9127 61.9561 46.3084C61.8275 46.7889 61.8007 47.2862 61.8772 47.7701C61.9538 48.2541 62.1322 48.7148 62.4016 49.1244C62.671 49.5341 63.0259 49.8842 63.4449 50.1537C63.8639 50.4233 64.3383 50.6066 64.8396 50.6928L65.0004 50.7247C65.2169 50.7713 65.4197 50.8606 65.596 50.9869C65.7724 51.1132 65.9186 51.2739 66.0256 51.4589C66.1432 51.6912 66.3205 51.8895 66.5414 52.0356C66.7623 52.1818 67.0198 52.2712 67.2902 52.2957ZM66.7686 69.622C66.4695 68.5527 66.0883 67.5221 65.7044 66.4842C65.0073 64.6231 64.2512 62.7922 63.408 61.0101C62.9172 59.9206 62.2117 58.938 61.3293 58.1146C60.0072 56.9034 58.3465 56.0826 56.5339 55.7445C54.7214 55.4064 52.829 55.5644 51.0697 56.2007L50.7074 56.3347C48.2864 57.3532 46.3385 59.2204 45.2732 61.5438L45.1985 61.721C45.07 62.0664 45.0688 62.4398 45.1949 62.7776C45.2849 63.0336 45.4415 63.2615 45.6503 63.4401C46.3061 64.0285 46.9387 64.6254 47.5482 65.2309C48.4016 66.1007 49.2135 67.0164 49.9839 67.9778C51.6276 70.0058 53.0503 72.1936 54.2309 74.5086C54.7354 75.4936 55.2299 76.4989 55.6192 77.5515L56.0193 78.6333C56.7954 80.7324 57.3848 82.8965 57.7812 85.1027C57.7971 85.1745 57.8053 85.2491 57.8135 85.3232C57.8254 85.4314 57.8372 85.5385 57.8726 85.6339C58.0748 87.1203 57.9055 88.6437 57.3786 90.0793L68.3632 86.0165C68.6682 85.9043 68.9349 85.709 69.1295 85.4551C69.3242 85.2012 69.438 84.9001 69.4567 84.5899C69.4508 84.5645 69.4418 84.54 69.4297 84.5169L69.4297 84.4955L69.4305 84.4569C69.4321 84.3986 69.4337 84.3381 69.4157 84.2894C69.1361 79.298 68.2477 74.3753 66.7686 69.622ZM76.0403 64.8723C76.0245 64.8173 76.0047 64.7636 75.9808 64.7115C76.1883 64.4302 76.3233 64.1071 76.3741 63.7698C76.4249 63.4326 76.3901 63.0914 76.2726 62.7756C76.1289 62.3883 75.8681 62.0541 75.5228 61.8148C75.4587 61.7682 75.3906 61.7267 75.3192 61.6907L75.1784 61.6181C74.4086 61.2205 73.5502 60.9959 72.6656 60.9605C73.0077 60.2055 73.07 59.3688 72.8417 58.5936C72.8172 58.5031 72.7847 58.4151 72.7444 58.3305C72.4794 57.6021 71.9712 56.9849 71.2967 56.5725C71.2636 56.546 71.2236 56.5221 71.1835 56.4981C71.1635 56.4861 71.1435 56.4741 71.1244 56.4618C71.0584 56.4377 70.9949 56.4084 70.9342 56.3743L70.8328 56.337C70.4748 56.2247 70.0827 56.2374 69.7245 56.373C69.4199 56.4841 69.1533 56.6781 68.958 56.9307L69.0689 57.2304C69.2698 57.7662 69.3306 58.3453 69.2462 58.9181C69.2459 58.9803 69.2364 59.0426 69.2182 59.1029C69.1197 59.664 68.8833 60.1988 68.5287 60.6625C68.1742 61.1262 67.7118 61.5052 67.1805 61.7677C67.2385 61.8883 67.2993 62.0077 67.3602 62.1274C67.499 62.4 67.6383 62.6736 67.7454 62.9631C67.7657 63.0053 67.782 63.0493 67.794 63.0947C68.2532 64.0932 68.62 65.1215 68.9905 66.1603C69.1259 66.5399 69.2618 66.9209 69.4029 67.3024L69.4353 67.3901C69.7679 68.2891 70.08 69.2041 70.3636 70.1129C71.3693 70.2242 72.3966 70.1008 73.3588 69.7529C73.6696 69.6402 73.9701 69.5013 74.2568 69.3377C74.3857 69.2711 74.5105 69.1972 74.6306 69.1163C74.9933 68.8415 75.2622 68.4683 75.4002 68.0482C75.5383 67.6281 75.5388 67.1817 75.4016 66.7704C75.716 66.5648 75.9511 66.264 76.0673 65.9185C76.1836 65.5729 76.1741 65.2036 76.0403 64.8723Z" fill="url(#paint2_linear_14375_90703)"/>
<g opacity="0.4">
<rect x="191" y="82" width="10" height="60" fill="url(#paint3_linear_14375_90703)"/>
<rect x="209" y="64" width="10" height="78" fill="url(#paint4_linear_14375_90703)"/>
<rect x="227" y="78" width="10" height="64" fill="url(#paint5_linear_14375_90703)"/>
<rect x="245" y="82" width="10" height="60" fill="url(#paint6_linear_14375_90703)"/>
<rect x="263" y="68" width="10" height="74" fill="url(#paint7_linear_14375_90703)"/>
<rect x="281" y="48" width="10" height="94" fill="url(#paint8_linear_14375_90703)"/>
<rect x="299" y="76" width="10" height="66" fill="url(#paint9_linear_14375_90703)"/>
<rect x="317" y="82" width="10" height="60" fill="url(#paint10_linear_14375_90703)"/>
<rect x="335" y="95" width="10" height="47" fill="url(#paint11_linear_14375_90703)"/>
<rect x="353" y="99" width="10" height="43" fill="url(#paint12_linear_14375_90703)"/>
</g>
<g filter="url(#filter0_f_14375_90703)">
<ellipse cx="281.122" cy="166.5" rx="48.122" ry="4.5" fill="url(#paint13_linear_14375_90703)" fill-opacity="0.6"/>
</g>
<g opacity="0.4">
<path fill-rule="evenodd" clip-rule="evenodd" d="M283.115 107.126C286.59 103.469 292.121 95.5552 292.849 86.4573L293.118 86.6146L299.297 76.0726L284.52 67.028C276.212 61.3433 265.06 65.2032 262.312 66.2991C259.438 67.445 243.219 75.7057 247.77 97.5543C248.529 100.842 251.564 108.206 257.633 111.361C248.429 116.217 230.141 130.691 230.626 149.748C230.577 152.075 232.345 158.35 238.972 160.674C239.064 160.706 239.16 160.738 239.258 160.769L239.244 160.817L253.418 164.922L254.202 162.511C276.307 163.357 312.029 160.74 312.838 155.881C314.457 152.796 315.534 139.342 307.281 127.446C299.027 115.551 286.353 107.126 283.115 107.126Z" fill="url(#paint14_linear_14375_90703)"/>
<path d="M305.007 83.4272C310.733 96.5498 302.621 109.876 297.85 114.898C301.032 114.898 309.424 117.821 317.537 129.515C325.651 141.208 324.497 150.196 322.907 153.228C321.863 159.492 262.502 166.502 254.003 165.01C247.204 163.817 245.601 158.945 245.65 156.658C245.173 137.926 263.149 123.698 272.197 118.926C266.232 115.823 263.248 108.585 262.502 105.354C258.028 83.8772 275.329 75.8234 276.821 75.2269C278.312 74.6303 297.85 67.0241 305.007 83.4272Z" fill="url(#paint15_linear_14375_90703)"/>
</g>
<defs>
<filter id="filter0_f_14375_90703" x="227" y="156" width="108.244" height="21" filterUnits="userSpaceOnUse" color-interpolation-filters="sRGB">
<feFlood flood-opacity="0" result="BackgroundImageFix"/>
<feBlend mode="normal" in="SourceGraphic" in2="BackgroundImageFix" result="shape"/>
<feGaussianBlur stdDeviation="3" result="effect1_foregroundBlur_14375_90703"/>
</filter>
<linearGradient id="paint0_linear_14375_90703" x1="187" y1="107.25" x2="187.845" y2="259.998" gradientUnits="userSpaceOnUse">
<stop stop-color="#D9D9D9"/>
<stop offset="1" stop-color="#D9D9D9" stop-opacity="0"/>
</linearGradient>
<linearGradient id="paint1_linear_14375_90703" x1="6.70178e-08" y1="135.2" x2="375.031" y2="139.845" gradientUnits="userSpaceOnUse">
<stop offset="0.0659612" stop-color="#E7EDFF"/>
<stop offset="0.476867" stop-color="#D2E1FF"/>
<stop offset="0.852851" stop-color="#CADCFE"/>
</linearGradient>
<linearGradient id="paint2_linear_14375_90703" x1="35.075" y1="40.7539" x2="56.6275" y2="99.0249" gradientUnits="userSpaceOnUse">
<stop stop-color="white" stop-opacity="0.7"/>
<stop offset="1" stop-color="white" stop-opacity="0.1"/>
</linearGradient>
<linearGradient id="paint3_linear_14375_90703" x1="196" y1="82" x2="196" y2="142" gradientUnits="userSpaceOnUse">
<stop stop-color="#CADCFE"/>
<stop offset="1" stop-color="#CDDCFF" stop-opacity="0"/>
</linearGradient>
<linearGradient id="paint4_linear_14375_90703" x1="214" y1="64" x2="214" y2="142" gradientUnits="userSpaceOnUse">
<stop stop-color="#CADCFE"/>
<stop offset="1" stop-color="#CDDCFF" stop-opacity="0"/>
</linearGradient>
<linearGradient id="paint5_linear_14375_90703" x1="232" y1="78" x2="232" y2="142" gradientUnits="userSpaceOnUse">
<stop stop-color="#CADCFE"/>
<stop offset="1" stop-color="#CDDCFF" stop-opacity="0"/>
</linearGradient>
<linearGradient id="paint6_linear_14375_90703" x1="250" y1="82" x2="250" y2="142" gradientUnits="userSpaceOnUse">
<stop stop-color="#C8DAFE"/>
<stop offset="1" stop-color="#C9DBFE" stop-opacity="0"/>
</linearGradient>
<linearGradient id="paint7_linear_14375_90703" x1="268" y1="68" x2="268" y2="142" gradientUnits="userSpaceOnUse">
<stop stop-color="#CADCFE"/>
<stop offset="1" stop-color="#CDDCFF" stop-opacity="0"/>
</linearGradient>
<linearGradient id="paint8_linear_14375_90703" x1="286" y1="48" x2="286" y2="142" gradientUnits="userSpaceOnUse">
<stop stop-color="#CADCFE"/>
<stop offset="0.0001" stop-color="#C4D9FD"/>
<stop offset="1" stop-color="#C6DBFE" stop-opacity="0"/>
</linearGradient>
<linearGradient id="paint9_linear_14375_90703" x1="304" y1="76" x2="304" y2="142" gradientUnits="userSpaceOnUse">
<stop stop-color="#CADCFE"/>
<stop offset="0.0001" stop-color="#C4D9FD"/>
<stop offset="1" stop-color="#C6DBFE" stop-opacity="0"/>
</linearGradient>
<linearGradient id="paint10_linear_14375_90703" x1="322" y1="82" x2="322" y2="142" gradientUnits="userSpaceOnUse">
<stop stop-color="#CADCFE"/>
<stop offset="0.0001" stop-color="#C4D9FD"/>
<stop offset="1" stop-color="#C6DBFE" stop-opacity="0"/>
</linearGradient>
<linearGradient id="paint11_linear_14375_90703" x1="340" y1="95" x2="340" y2="142" gradientUnits="userSpaceOnUse">
<stop stop-color="#CADCFE"/>
<stop offset="0.0001" stop-color="#C4D9FD"/>
<stop offset="1" stop-color="#C6DBFE" stop-opacity="0"/>
</linearGradient>
<linearGradient id="paint12_linear_14375_90703" x1="358" y1="99" x2="358" y2="142" gradientUnits="userSpaceOnUse">
<stop stop-color="#CADCFE"/>
<stop offset="0.0001" stop-color="#C4D9FD"/>
<stop offset="1" stop-color="#C6DBFE" stop-opacity="0"/>
</linearGradient>
<linearGradient id="paint13_linear_14375_90703" x1="233.724" y1="166.5" x2="327.438" y2="165.976" gradientUnits="userSpaceOnUse">
<stop offset="0.00706869" stop-color="#B8CEFD" stop-opacity="0.58"/>
<stop offset="0.565956" stop-color="#B8CEFD"/>
<stop offset="1" stop-color="#B8CEFD" stop-opacity="0.58"/>
</linearGradient>
<linearGradient id="paint14_linear_14375_90703" x1="272.292" y1="66.9977" x2="265.675" y2="165.676" gradientUnits="userSpaceOnUse">
<stop offset="0.115664" stop-color="#E1EBFF"/>
<stop offset="0.540978" stop-color="#D3E2FF"/>
<stop offset="0.717608" stop-color="#E4EEFF"/>
<stop offset="1" stop-color="#C0D6FF"/>
</linearGradient>
<linearGradient id="paint15_linear_14375_90703" x1="284.843" y1="85.3771" x2="249.663" y2="139.941" gradientUnits="userSpaceOnUse">
<stop stop-color="#F2F5FF"/>
<stop offset="1" stop-color="#DDE7FE"/>
</linearGradient>
</defs>
</svg>
