<svg width="375" height="260" viewBox="0 0 375 260" fill="none" xmlns="http://www.w3.org/2000/svg">
<mask id="mask0_14375_90703" style="mask-type:alpha" maskUnits="userSpaceOnUse" x="0" y="0" width="375" height="260">
<rect width="375" height="260" fill="url(#paint0_linear_14375_90703)"/>
</mask>
<g mask="url(#mask0_14375_90703)">
<rect width="375" height="260" fill="url(#paint1_linear_14375_90703)"/>
</g>
<g opacity="0.4">
<rect x="191" y="82" width="10" height="60" fill="url(#paint3_linear_14375_90703)"/>
<rect x="209" y="64" width="10" height="78" fill="url(#paint4_linear_14375_90703)"/>
<rect x="227" y="78" width="10" height="64" fill="url(#paint5_linear_14375_90703)"/>
<rect x="245" y="82" width="10" height="60" fill="url(#paint6_linear_14375_90703)"/>
<rect x="263" y="68" width="10" height="74" fill="url(#paint7_linear_14375_90703)"/>
<rect x="281" y="48" width="10" height="94" fill="url(#paint8_linear_14375_90703)"/>
<rect x="299" y="76" width="10" height="66" fill="url(#paint9_linear_14375_90703)"/>
<rect x="317" y="82" width="10" height="60" fill="url(#paint10_linear_14375_90703)"/>
<rect x="335" y="95" width="10" height="47" fill="url(#paint11_linear_14375_90703)"/>
<rect x="353" y="99" width="10" height="43" fill="url(#paint12_linear_14375_90703)"/>
</g>
<g filter="url(#filter0_f_14375_90703)">
<ellipse cx="281.122" cy="166.5" rx="48.122" ry="4.5" fill="url(#paint13_linear_14375_90703)" fill-opacity="0.6"/>
</g>
<g opacity="0.4">
<path fill-rule="evenodd" clip-rule="evenodd" d="M283.115 107.126C286.59 103.469 292.121 95.5552 292.849 86.4573L293.118 86.6146L299.297 76.0726L284.52 67.028C276.212 61.3433 265.06 65.2032 262.312 66.2991C259.438 67.445 243.219 75.7057 247.77 97.5543C248.529 100.842 251.564 108.206 257.633 111.361C248.429 116.217 230.141 130.691 230.626 149.748C230.577 152.075 232.345 158.35 238.972 160.674C239.064 160.706 239.16 160.738 239.258 160.769L239.244 160.817L253.418 164.922L254.202 162.511C276.307 163.357 312.029 160.74 312.838 155.881C314.457 152.796 315.534 139.342 307.281 127.446C299.027 115.551 286.353 107.126 283.115 107.126Z" fill="url(#paint14_linear_14375_90703)"/>
<path d="M305.007 83.4272C310.733 96.5498 302.621 109.876 297.85 114.898C301.032 114.898 309.424 117.821 317.537 129.515C325.651 141.208 324.497 150.196 322.907 153.228C321.863 159.492 262.502 166.502 254.003 165.01C247.204 163.817 245.601 158.945 245.65 156.658C245.173 137.926 263.149 123.698 272.197 118.926C266.232 115.823 263.248 108.585 262.502 105.354C258.028 83.8772 275.329 75.8234 276.821 75.2269C278.312 74.6303 297.85 67.0241 305.007 83.4272Z" fill="url(#paint15_linear_14375_90703)"/>
</g>
<defs>
<filter id="filter0_f_14375_90703" x="227" y="156" width="108.244" height="21" filterUnits="userSpaceOnUse" color-interpolation-filters="sRGB">
<feFlood flood-opacity="0" result="BackgroundImageFix"/>
<feBlend mode="normal" in="SourceGraphic" in2="BackgroundImageFix" result="shape"/>
<feGaussianBlur stdDeviation="3" result="effect1_foregroundBlur_14375_90703"/>
</filter>
<linearGradient id="paint0_linear_14375_90703" x1="187" y1="107.25" x2="187.845" y2="259.998" gradientUnits="userSpaceOnUse">
<stop stop-color="#D9D9D9"/>
<stop offset="1" stop-color="#D9D9D9" stop-opacity="0"/>
</linearGradient>
<linearGradient id="paint1_linear_14375_90703" x1="6.70178e-08" y1="135.2" x2="375.031" y2="139.845" gradientUnits="userSpaceOnUse">
<stop offset="0.0659612" stop-color="#E7EDFF"/>
<stop offset="0.476867" stop-color="#D2E1FF"/>
<stop offset="0.852851" stop-color="#CADCFE"/>
</linearGradient>
<linearGradient id="paint2_linear_14375_90703" x1="35.075" y1="40.7539" x2="56.6275" y2="99.0249" gradientUnits="userSpaceOnUse">
<stop stop-color="white" stop-opacity="0.7"/>
<stop offset="1" stop-color="white" stop-opacity="0.1"/>
</linearGradient>
<linearGradient id="paint3_linear_14375_90703" x1="196" y1="82" x2="196" y2="142" gradientUnits="userSpaceOnUse">
<stop stop-color="#CADCFE"/>
<stop offset="1" stop-color="#CDDCFF" stop-opacity="0"/>
</linearGradient>
<linearGradient id="paint4_linear_14375_90703" x1="214" y1="64" x2="214" y2="142" gradientUnits="userSpaceOnUse">
<stop stop-color="#CADCFE"/>
<stop offset="1" stop-color="#CDDCFF" stop-opacity="0"/>
</linearGradient>
<linearGradient id="paint5_linear_14375_90703" x1="232" y1="78" x2="232" y2="142" gradientUnits="userSpaceOnUse">
<stop stop-color="#CADCFE"/>
<stop offset="1" stop-color="#CDDCFF" stop-opacity="0"/>
</linearGradient>
<linearGradient id="paint6_linear_14375_90703" x1="250" y1="82" x2="250" y2="142" gradientUnits="userSpaceOnUse">
<stop stop-color="#C8DAFE"/>
<stop offset="1" stop-color="#C9DBFE" stop-opacity="0"/>
</linearGradient>
<linearGradient id="paint7_linear_14375_90703" x1="268" y1="68" x2="268" y2="142" gradientUnits="userSpaceOnUse">
<stop stop-color="#CADCFE"/>
<stop offset="1" stop-color="#CDDCFF" stop-opacity="0"/>
</linearGradient>
<linearGradient id="paint8_linear_14375_90703" x1="286" y1="48" x2="286" y2="142" gradientUnits="userSpaceOnUse">
<stop stop-color="#CADCFE"/>
<stop offset="0.0001" stop-color="#C4D9FD"/>
<stop offset="1" stop-color="#C6DBFE" stop-opacity="0"/>
</linearGradient>
<linearGradient id="paint9_linear_14375_90703" x1="304" y1="76" x2="304" y2="142" gradientUnits="userSpaceOnUse">
<stop stop-color="#CADCFE"/>
<stop offset="0.0001" stop-color="#C4D9FD"/>
<stop offset="1" stop-color="#C6DBFE" stop-opacity="0"/>
</linearGradient>
<linearGradient id="paint10_linear_14375_90703" x1="322" y1="82" x2="322" y2="142" gradientUnits="userSpaceOnUse">
<stop stop-color="#CADCFE"/>
<stop offset="0.0001" stop-color="#C4D9FD"/>
<stop offset="1" stop-color="#C6DBFE" stop-opacity="0"/>
</linearGradient>
<linearGradient id="paint11_linear_14375_90703" x1="340" y1="95" x2="340" y2="142" gradientUnits="userSpaceOnUse">
<stop stop-color="#CADCFE"/>
<stop offset="0.0001" stop-color="#C4D9FD"/>
<stop offset="1" stop-color="#C6DBFE" stop-opacity="0"/>
</linearGradient>
<linearGradient id="paint12_linear_14375_90703" x1="358" y1="99" x2="358" y2="142" gradientUnits="userSpaceOnUse">
<stop stop-color="#CADCFE"/>
<stop offset="0.0001" stop-color="#C4D9FD"/>
<stop offset="1" stop-color="#C6DBFE" stop-opacity="0"/>
</linearGradient>
<linearGradient id="paint13_linear_14375_90703" x1="233.724" y1="166.5" x2="327.438" y2="165.976" gradientUnits="userSpaceOnUse">
<stop offset="0.00706869" stop-color="#B8CEFD" stop-opacity="0.58"/>
<stop offset="0.565956" stop-color="#B8CEFD"/>
<stop offset="1" stop-color="#B8CEFD" stop-opacity="0.58"/>
</linearGradient>
<linearGradient id="paint14_linear_14375_90703" x1="272.292" y1="66.9977" x2="265.675" y2="165.676" gradientUnits="userSpaceOnUse">
<stop offset="0.115664" stop-color="#E1EBFF"/>
<stop offset="0.540978" stop-color="#D3E2FF"/>
<stop offset="0.717608" stop-color="#E4EEFF"/>
<stop offset="1" stop-color="#C0D6FF"/>
</linearGradient>
<linearGradient id="paint15_linear_14375_90703" x1="284.843" y1="85.3771" x2="249.663" y2="139.941" gradientUnits="userSpaceOnUse">
<stop stop-color="#F2F5FF"/>
<stop offset="1" stop-color="#DDE7FE"/>
</linearGradient>
</defs>
</svg>
