<?xml version="1.0" standalone="no"?>
<!DOCTYPE svg PUBLIC "-//W3C//DTD SVG 1.1//EN" "http://www.w3.org/Graphics/SVG/1.1/DTD/svg11.dtd"><svg t="1693839194210"
    class="icon" viewBox="0 0 1024 1024" version="1.1" xmlns="http://www.w3.org/2000/svg" p-id="4882"
    xmlns:xlink="http://www.w3.org/1999/xlink" width="200" height="200">
    <path
        d="M695.168 712.832a42.666667 42.666667 0 0 1 0-60.330667L835.669333 512l-140.501333-140.501333a42.666667 42.666667 0 0 1 60.330667-60.330667l170.666666 170.666667a42.666667 42.666667 0 0 1 0 60.330666l-170.666666 170.666667a42.666667 42.666667 0 0 1-60.330667 0zM328.832 712.832a42.666667 42.666667 0 0 0 0-60.330667L188.330667 512l140.501333-140.501333a42.666667 42.666667 0 0 0-60.330667-60.330667l-170.666666 170.666667a42.666667 42.666667 0 0 0 0 60.330666l170.666666 170.666667a42.666667 42.666667 0 0 0 60.330667 0z"
        fill="#386BF3" p-id="4883"></path>
    <path
        d="M609.066667 172.288a42.666667 42.666667 0 0 0-52.736 29.312l-170.666667 597.333333a42.666667 42.666667 0 1 0 82.005333 23.466667l170.666667-597.333333a42.666667 42.666667 0 0 0-29.269333-52.778667z"
        fill="#303F5B" p-id="4884"></path>
</svg>